# xmcd CD database file
#
# Track frame offsets:
#	150
#	18918
#	40781
#	62553
#	86700
#	110983
#	134086
#	158922
#	182562
#	204185
#	229878
#	248876
#	264947
#	291523
#	303917
#
# Disc length: 4244 seconds
#
# Revision: 0
# Processed by: cddbd v1.5.2PL0 Copyright (c) Steve Scherf et al.
# Submitted via: CDex 1.70beta2
#
DISCID=d310920f
DTITLE=Lea DeLaria - The very best of
DYEAR=2006
DGENRE=Jazz
TTITLE0=All the jazz
TTITLE1=The ballad of Sweeney Todd
TTITLE2=I've got your number
TTITLE3=Cool
TTITLE4=Life has been good to me
TTITLE5=Some other time
TTITLE6=Kiko and the lavender moon
TTITLE7=Call me
TTITLE8=Philadelphia
TTITLE9=People are strange
TTITLE10=Been caught stealing
TTITLE11=Just a girl
TTITLE12=Black hole sun
TTITLE13=It don't mean a thing if it ain't got that swing
TTITLE14=Dirtz Martini recipe
EXTD=YEAR: 2006
EXTT0=
EXTT1=
EXTT2=
EXTT3=
EXTT4=
EXTT5=
EXTT6=
EXTT7=
EXTT8=
EXTT9=
EXTT10=
EXTT11=
EXTT12=
EXTT13=
EXTT14=
PLAYORDER=
